<svg version="1.1" xmlns="http://www.w3.org/2000/svg" xmlns:xlink="http://www.w3.org/1999/xlink" width="700" height="700" viewBox="606,127,700,700"><g id="document" fill="#ffffff" fill-rule="nonzero" stroke="#000000" stroke-width="0" stroke-linecap="butt" stroke-linejoin="miter" stroke-miterlimit="10" stroke-dasharray="" stroke-dashoffset="0" font-family="none" font-weight="none" font-size="none" text-anchor="none" style="mix-blend-mode: normal"><rect x="606" y="90.71429" transform="scale(1,1.4)" width="700" height="500" id="Shape 1 1" vector-effect="non-scaling-stroke"/></g><g fill="#00cbdf" fill-rule="nonzero" stroke="none" stroke-width="1" stroke-linecap="butt" stroke-linejoin="miter" stroke-miterlimit="10" stroke-dasharray="" stroke-dashoffset="0" font-family="none" font-weight="none" font-size="none" text-anchor="none" style="mix-blend-mode: normal"><g id="stage"><g id="layer1 1"><g id="Group 1"><g id="Group 1"><path d="M1009.83315,502.49984h-107.6663v-70.1247h107.6663zM1013.00015,422.81263h-114c-3.4833,0 -6.3333,2.86875 -6.3333,6.37497v76.50008c0,3.50592 2.85,6.37467 6.3333,6.37467h44.3333v9.56251h-15.8333v9.56251h57v-9.56251h-15.8333v-9.56251h44.3333c3.483,0 6.333,-2.86875 6.333,-6.37467v-76.50008c0,-3.50622 -2.85,-6.37497 -6.333,-6.37497z" id="CompoundPath 1"/></g></g><g id="Group 1"><g id="Group 1"><path d="M920.76195,499.61485c0.50682,0.29595 1.08157,0.45188 1.66666,0.45228h65.14667c1.8409,-0.00203 3.3318,-1.5146 3.3299,-3.37851c-0.0006,-0.5913 -0.1546,-1.17197 -0.4466,-1.68399l-32.5666,-57.37503c-0.9158,-1.61696 -2.9528,-2.17617 -4.5498,-1.249c-0.5134,0.29809 -0.9392,0.72916 -1.2336,1.249l-32.56663,57.37503c-0.92044,1.61413 -0.37423,3.67821 1.22,4.61022zM920.98695,495.84835l32.56753,-57.37503c0.1469,-0.26001 0.3598,-0.47557 0.6166,-0.62431c0.2514,-0.14965 0.5376,-0.2286 0.8292,-0.22869c0.5982,0.00212 1.1497,0.32731 1.4467,0.853l32.5683,57.37503c0.4603,0.80716 0.1871,1.83921 -0.61,2.30516c-0.2524,0.14752 -0.5386,0.22548 -0.83,0.22609h-65.14833c-0.92048,-0.00182 -1.66515,-0.75897 -1.6633,-1.69088c0.0006,-0.29504 0.07759,-0.58492 0.2233,-0.84037z" id="CompoundPath 1"/><path d="M955.01198,487.69519c2.1125,0.00365 3.8279,-1.72733 3.8315,-3.86623c0.003,-1.81227 -1.2356,-3.38438 -2.9815,-3.78402h-0.0284v-18.79038h-1.6666v18.792c-2.0596,0.47577 -3.3483,2.5519 -2.8784,4.63725c0.3965,1.75962 1.9409,3.00864 3.7234,3.01138z" id="Path 1"/><path d="M955.00028,491.01366h0.625c3.9211,-0.36673 6.8062,-3.88243 6.444,-7.85254c-0.1858,-2.03685 -1.2164,-3.89843 -2.8357,-5.12183v-20.88788c0.0067,-0.14003 0.0067,-0.28006 0,-0.42181c-0.1102,-2.28582 -1.973,-4.08179 -4.2333,-4.08129c-0.07,0 -0.1408,0 -0.2117,0.00506c-2.324,0.11482 -4.1224,2.10438 -4.03,4.45844v20.88362c-3.1614,2.38018 -3.8185,6.90454 -1.4676,10.10556c1.3428,1.82827 3.459,2.9079 5.7093,2.91266zM951.75028,479.34966l0.6725,-0.50625v-21.77462v-0.04222c-0.0295,-0.67746 0.2107,-1.33853 0.6667,-1.83516c0.4573,-0.51546 1.0997,-0.82357 1.7833,-0.85556c0.0425,0 0.0833,0 0.1258,0c1.3725,-0.00071 2.5034,1.09016 2.5692,2.47809c0,0.08434 0,0.17385 0,0.25991v0.03959v21.77553l0.6742,0.50625c2.4162,1.8306 2.9093,5.2978 1.1013,7.74421c-0.91,1.2313 -2.2852,2.02358 -3.7955,2.1867h-0.5475c-3.0192,-0.00668 -5.4613,-2.49035 -5.4545,-5.54718c0.0038,-1.74585 0.8209,-3.38752 2.2045,-4.42928z" id="CompoundPath 1"/></g></g></g></g></g></svg>