<svg width="24" height="23" xmlns="http://www.w3.org/2000/svg" xmlns:xlink="http://www.w3.org/1999/xlink" xml:space="preserve" overflow="hidden"><g transform="translate(-82 -586)"><path d="M1.91667 4.79167 1.91667 18.2083 21.0833 18.2083 21.0833 4.79167 1.91667 4.79167ZM11.8354 13.1531C11.6437 13.3448 11.3562 13.3448 11.1646 13.1531L4.07292 6.22917 18.951 6.22917 11.8354 13.1531ZM8.02604 11.4281 3.35417 16.124 3.35417 6.85208 8.02604 11.4281ZM8.72083 12.099 10.5177 13.8479C10.8052 14.1115 11.1646 14.2552 11.524 14.2552 11.8833 14.2552 12.2427 14.1115 12.5302 13.8479L14.3271 12.099 18.975 16.7708 4.04896 16.7708 8.72083 12.099ZM14.974 11.4281 19.6458 6.87604 19.6458 16.1 14.974 11.4281Z" fill="#00CBDF" transform="matrix(1.04348 0 0 1 82 586)"/></g></svg>