<svg width="26" height="26" xmlns="http://www.w3.org/2000/svg" xmlns:xlink="http://www.w3.org/1999/xlink" xml:space="preserve" overflow="hidden"><g transform="translate(-315 -614)"><path d="M327.994 616.708C322.314 616.708 317.708 621.314 317.708 626.994 317.708 632.675 322.314 637.28 327.994 637.28 333.675 637.28 338.28 632.675 338.28 626.994 338.28 626.994 338.28 626.994 338.28 626.994 338.282 621.315 333.681 616.71 328.002 616.708 328 616.708 327.997 616.708 327.994 616.708ZM330.486 627.486C328.987 628.982 327.48 630.491 325.963 632.013 324.674 630.718 323.382 629.426 322.087 628.138L323.382 626.843 325.963 629.423C327.216 628.152 328.462 626.891 329.701 625.637 330.939 624.385 331.623 623.712 332.908 622.471 332.944 622.435 332.982 622.399 333.024 622.363 333.065 622.328 333.101 622.289 333.133 622.246L334.446 623.541C332.921 625.057 331.984 625.989 330.486 627.485Z" fill="#00CBDF"/></g></svg>