<svg width="152" height="153" xmlns="http://www.w3.org/2000/svg" xmlns:xlink="http://www.w3.org/1999/xlink" xml:space="preserve" overflow="hidden"><g transform="translate(-1107 -40)"><path d="M129.833 101.333 22.1667 101.333 22.1667 31.6667 129.833 31.6667 129.833 101.333ZM133 22.1667 19 22.1667C15.5167 22.1667 12.6667 25.0167 12.6667 28.5L12.6667 104.5C12.6667 107.983 15.5167 110.833 19 110.833L63.3333 110.833 63.3333 120.333 47.5 120.333 47.5 129.833 104.5 129.833 104.5 120.333 88.6667 120.333 88.6667 110.833 133 110.833C136.483 110.833 139.333 107.983 139.333 104.5L139.333 28.5C139.333 25.0167 136.483 22.1667 133 22.1667Z" fill="#00CBDF" transform="matrix(1 0 0 1.00658 1107 40)"/></g></svg>