<svg width="24" height="24" xmlns="http://www.w3.org/2000/svg" xmlns:xlink="http://www.w3.org/1999/xlink" xml:space="preserve" overflow="hidden"><g transform="translate(-81 -614)"><path d="M102.05 621.225C99.4 619.65 96.3 618.75 93 618.75 89.7 618.75 86.6 619.65 83.95 621.225 83.45 621.525 83.3 622.175 83.625 622.65L84.95 624.6C85.3 625.125 86.05 625.2 86.475 624.75L87.7 623.525C87.9 623.325 88 623.075 88 622.825L88 621.55C89.575 621.025 91.25 620.725 93 620.725 94.75 620.725 96.425 621.025 98 621.55L98 622.825C98 623.1 98.1 623.35 98.3 623.525L99.525 624.75C99.975 625.2 100.7 625.125 101.05 624.6L102.375 622.65C102.7 622.175 102.55 621.525 102.05 621.225Z" fill="#00CBDF"/><path d="M95.5 627 94.5 627 94.5 626 95.5 626 95.5 627ZM95.5 629 94.5 629 94.5 628 95.5 628 95.5 629ZM95.5 631 94.5 631 94.5 630 95.5 630 95.5 631ZM93.5 627 92.5 627 92.5 626 93.5 626 93.5 627ZM93.5 629 92.5 629 92.5 628 93.5 628 93.5 629ZM93.5 631 92.5 631 92.5 630 93.5 630 93.5 631ZM91.5 627 90.5 627 90.5 626 91.5 626 91.5 627ZM91.5 629 90.5 629 90.5 628 91.5 628 91.5 629ZM91.5 631 90.5 631 90.5 630 91.5 630 91.5 631ZM97 624.25 97 622.75C97 622.325 96.675 622 96.25 622 95.825 622 95.5 622.325 95.5 622.75L95.5 624 90.5 624 90.5 622.75C90.5 622.325 90.175 622 89.75 622 89.325 622 89 622.325 89 622.75L89 624.25 86.075 627.175C85.7 627.55 85.5 628.05 85.5 628.6L85.5 633 100.5 633 100.5 628.575C100.5 628.05 100.3 627.525 99.925 627.15L97 624.25Z" fill="#00CBDF"/></g></svg>