<svg width="27" height="27" xmlns="http://www.w3.org/2000/svg" xmlns:xlink="http://www.w3.org/1999/xlink" xml:space="preserve" overflow="hidden"><g transform="translate(-314 -581)"><path d="M327.496 583.812C321.597 583.812 316.814 588.595 316.814 594.494 316.814 600.393 321.597 605.176 327.496 605.176 333.395 605.176 338.178 600.393 338.178 594.494 338.178 594.494 338.178 594.493 338.178 594.493 338.18 588.596 333.401 583.815 327.504 583.812 327.502 583.812 327.499 583.812 327.496 583.812ZM332.733 595.445 328.447 595.445 328.447 599.73 326.545 599.73 326.545 595.444 322.259 595.444 322.259 593.542 326.545 593.542 326.545 589.256 328.447 589.256 328.447 593.542 332.733 593.542Z" fill="#00CBDF"/></g></svg>