<svg width="96" height="96" xmlns="http://www.w3.org/2000/svg" xmlns:xlink="http://www.w3.org/1999/xlink" xml:space="preserve" overflow="hidden"><g transform="translate(-101 -484)"><path d="M177.8 547.6C173.4 544 167.8 541.6 162.2 540 158.2 538.8 153.8 538 149 538 144.6 538 140.2 538.8 135.8 540 130.2 541.6 124.6 544.4 120.2 547.6 118.2 549.2 117 551.6 117 554L117 570 181 570 181 554C181 551.6 179.8 549.2 177.8 547.6Z" fill="#00CBDF"/><path d="M133.4 504.4C134 504.4 134.5 504.2 134.8 503.8L134.8 503.8C138.5 500.2 143.5 498 149 498 160 498 169 507 169 518L169 522.6 157.5 526.4C157 526.2 156.5 526 156 526 154.3 526 153 527.3 153 529 153 530.7 154.3 532 156 532 157.2 532 158.3 531.3 158.8 530.2L174.7 524.9C175.5 524.6 176.1 523.9 176.1 523L176.1 514C176.1 512.9 175.2 512 174.1 512L172.3 512C169.6 501.7 160.2 494 149 494 142.5 494 136.6 496.6 132.2 500.8 131.7 501.2 131.4 501.7 131.4 502.4 131.4 503.5 132.3 504.4 133.4 504.4Z" fill="#00CBDF"/><path d="M164.9 519.7C165 519.1 165 518.6 165 518 165 509.2 157.8 502 149 502 140.2 502 133 509.2 133 518 133 526.8 140.2 534 149 534 149.3 534 149.7 534 150 533.9L150 529 150 529C150 528.1 150.2 527.2 150.6 526.3 151.3 524.9 152.5 523.8 154.1 523.3L164.9 519.7Z" fill="#00CBDF"/></g></svg>