<svg width="80" height="81" xmlns="http://www.w3.org/2000/svg" xmlns:xlink="http://www.w3.org/1999/xlink" xml:space="preserve" overflow="hidden"><g transform="translate(-1135 -407)"><path d="M5.76167 71.22C6.26849 71.5123 6.84324 71.6663 7.42833 71.6667L72.575 71.6667C74.4159 71.6647 75.9068 70.1708 75.9049 68.3299 75.9043 67.7459 75.7503 67.1724 75.4583 66.6667L42.8917 10C41.9759 8.403 39.9389 7.8507 38.3419 8.76642 37.8285 9.06083 37.4027 9.48658 37.1083 10L4.54167 66.6667C3.62123 68.2609 4.16744 70.2995 5.76167 71.22ZM5.98667 67.5 38.5542 10.8333C38.7011 10.5765 38.914 10.3636 39.1708 10.2167 39.4222 10.0689 39.7084 9.99092 40 9.99083 40.5982 9.99292 41.1497 10.3141 41.4467 10.8333L74.015 67.5C74.4753 68.2972 74.2021 69.3165 73.405 69.7767 73.1526 69.9224 72.8664 69.9994 72.575 70L7.42667 70C6.50619 69.9982 5.76152 69.2504 5.76337 68.33 5.76397 68.0386 5.84096 67.7523 5.98667 67.5Z" fill="#00CBDF" transform="matrix(1 0 0 1.0125 1135 407)"/><path d="M40.0117 59.4475C42.1242 59.4511 43.8396 57.7415 43.8432 55.629 43.8462 53.8391 42.6076 52.2864 40.8617 51.8917L40.8333 51.8917 40.8333 33.3333 39.1667 33.3333 39.1667 51.8933C37.1071 52.3632 35.8184 54.4137 36.2883 56.4733 36.6848 58.2112 38.2292 59.4448 40.0117 59.4475Z" fill="#00CBDF" transform="matrix(1 0 0 1.0125 1135 407)"/><path d="M40 62.725 40.625 62.725C44.5461 62.3628 47.4312 58.8905 47.069 54.9694 46.8832 52.9577 45.8526 51.1191 44.2333 49.9108L44.2333 29.2808C44.24 29.1425 44.24 29.0042 44.2333 28.8642 44.1231 26.6066 42.2603 24.8328 40 24.8333 39.93 24.8333 39.8592 24.8333 39.7883 24.8383 37.4643 24.9517 35.6659 26.9167 35.7583 29.2417L35.7583 49.8675C32.5969 52.2183 31.9398 56.6868 34.2907 59.8483 35.6335 61.654 37.7497 62.7203 40 62.725ZM36.75 51.205 37.4225 50.705 37.4225 29.1992 37.4225 29.1575C37.393 28.4884 37.6332 27.8355 38.0892 27.345 38.5465 26.8359 39.1889 26.5316 39.8725 26.5 39.915 26.5 39.9558 26.5 39.9983 26.5 41.3708 26.4993 42.5017 27.5767 42.5675 28.9475 42.5675 29.0308 42.5675 29.1192 42.5675 29.2042L42.5675 29.2433 42.5675 50.75 43.2417 51.25C45.6579 53.058 46.151 56.4824 44.343 58.8986 43.433 60.1147 42.0578 60.8972 40.5475 61.0583L40 61.0583C36.9808 61.0517 34.5387 58.5987 34.5455 55.5796 34.5493 53.8553 35.3664 52.2339 36.75 51.205Z" fill="#00CBDF" transform="matrix(1 0 0 1.0125 1135 407)"/></g></svg>